HIERARCHY
ROOT hip
{
  OFFSET 0 0 0
  CHANNELS 6 Xposition Yposition Zposition Zrotation Yrotation Xrotation
  JOINT abdomen
  {
    OFFSET 0 20.6881 -0.73152
    CHANNELS 3 Zrotation Xrotation Yrotation
    JOINT chest
    {
      OFFSET 0 11.7043 -0.48768
      CHANNELS 3 Zrotation Xrotation Yrotation
      JOINT neck
      {
        OFFSET 0 22.1894 -2.19456
        CHANNELS 3 Zrotation Xrotation Yrotation
        JOINT head
        {
          OFFSET -0.24384 7.07133 1.2192
          CHANNELS 3 Zrotation Xrotation Yrotation
          JOINT leftEye
          {
            OFFSET 4.14528 8.04674 8.04672
            CHANNELS 3 Zrotation Xrotation Yrotation
            End Site
            {
              OFFSET 1 0 0
            }
          }
          JOINT rightEye
          {
            OFFSET -3.6576 8.04674 8.04672
            CHANNELS 3 Zrotation Xrotation Yrotation
            End Site
            {
              OFFSET 1 0 0
            }
          }
        }
      }
      JOINT rCollar
      {
        OFFSET -2.68224 19.2634 -4.8768
        CHANNELS 3 Zrotation Xrotation Yrotation
        JOINT rShldr
        {
          OFFSET -8.77824 -1.95073 1.46304
          CHANNELS 3 Zrotation Xrotation Yrotation
          JOINT rForeArm
          {
            OFFSET -28.1742 -1.7115 0.48768
            CHANNELS 3 Zrotation Xrotation Yrotation
            JOINT rHand
            {
              OFFSET -22.5879 0.773209 7.07136
              CHANNELS 3 Zrotation Xrotation Yrotation
              JOINT rThumb1
              {
                OFFSET -1.2192 -0.487915 3.41376
                CHANNELS 3 Zrotation Xrotation Yrotation
                JOINT rThumb2
                {
                  OFFSET -3.37035 -0.52449 3.41376
                  CHANNELS 3 Zrotation Xrotation Yrotation
                  End Site
                  {
                    OFFSET -1.78271 -1.18214 1.43049
                  }
                }
              }
              JOINT rIndex1
              {
                OFFSET -7.75947 0.938293 5.60832
                CHANNELS 3 Zrotation Xrotation Yrotation
                JOINT rIndex2
                {
                  OFFSET -2.54057 -0.884171 1.56538
                  CHANNELS 3 Zrotation Xrotation Yrotation
                  End Site
                  {
                    OFFSET -1.62519 -0.234802 1.16502
                  }
                }
              }
              JOINT rMid1
              {
                OFFSET -8.24714 1.18213 3.41376
                CHANNELS 3 Zrotation Xrotation Yrotation
                JOINT rMid2
                {
                  OFFSET -3.10165 -0.590103 1.0647
                  CHANNELS 3 Zrotation Xrotation Yrotation
                  End Site
                  {
                    OFFSET -2.48547 -0.328903 0.83742
                  }
                }
              }
              JOINT rRing1
              {
                OFFSET -8.82822 0.546677 1.51678
                CHANNELS 3 Zrotation Xrotation Yrotation
                JOINT rRing2
                {
                  OFFSET -2.60934 -0.819778 -0.0198488
                  CHANNELS 3 Zrotation Xrotation Yrotation
                  End Site
                  {
                    OFFSET -2.33842 -0.294052 0.168128
                  }
                }
              }
              JOINT rPinky1
              {
                OFFSET -8.27202 -0.0477905 -0.4584
                CHANNELS 3 Zrotation Xrotation Yrotation
                JOINT rPinky2
                {
                  OFFSET -1.82734 -0.647385 -0.700984
                  CHANNELS 3 Zrotation Xrotation Yrotation
                  End Site
                  {
                    OFFSET -1.69225 -0.51767 -0.607171
                  }
                }
              }
            }
          }
        }
      }
      JOINT lCollar
      {
        OFFSET 2.68224 19.2634 -4.8768
        CHANNELS 3 Zrotation Xrotation Yrotation
        JOINT lShldr
        {
          OFFSET 8.77824 -1.95073 1.46304
          CHANNELS 3 Zrotation Xrotation Yrotation
          JOINT lForeArm
          {
            OFFSET 28.1742 -1.7115 0.48768
            CHANNELS 3 Zrotation Xrotation Yrotation
            JOINT lHand
            {
              OFFSET 22.5879 0.773209 7.07136
              CHANNELS 3 Zrotation Xrotation Yrotation
              JOINT lThumb1
              {
                OFFSET 1.2192 -0.487915 3.41376
                CHANNELS 3 Zrotation Xrotation Yrotation
                JOINT lThumb2
                {
                  OFFSET 3.37035 -0.52449 3.41376
                  CHANNELS 3 Zrotation Xrotation Yrotation
                  End Site
                  {
                    OFFSET 1.78271 -1.18214 1.43049
                  }
                }
              }
              JOINT lIndex1
              {
                OFFSET 7.75947 0.938293 5.60832
                CHANNELS 3 Zrotation Xrotation Yrotation
                JOINT lIndex2
                {
                  OFFSET 2.54057 -0.884171 1.56538
                  CHANNELS 3 Zrotation Xrotation Yrotation
                  End Site
                  {
                    OFFSET 1.62519 -0.234802 1.16502
                  }
                }
              }
              JOINT lMid1
              {
                OFFSET 8.24714 1.18213 3.41376
                CHANNELS 3 Zrotation Xrotation Yrotation
                JOINT lMid2
                {
                  OFFSET 3.10165 -0.590103 1.0647
                  CHANNELS 3 Zrotation Xrotation Yrotation
                  End Site
                  {
                    OFFSET 2.48547 -0.328903 0.83742
                  }
                }
              }
              JOINT lRing1
              {
                OFFSET 8.82822 0.546677 1.51678
                CHANNELS 3 Zrotation Xrotation Yrotation
                JOINT lRing2
                {
                  OFFSET 2.60934 -0.819778 -0.0198488
                  CHANNELS 3 Zrotation Xrotation Yrotation
                  End Site
                  {
                    OFFSET 2.33842 -0.294052 0.168128
                  }
                }
              }
              JOINT lPinky1
              {
                OFFSET 8.27202 -0.0477905 -0.4584
                CHANNELS 3 Zrotation Xrotation Yrotation
                JOINT lPinky2
                {
                  OFFSET 1.82734 -0.647385 -0.700984
                  CHANNELS 3 Zrotation Xrotation Yrotation
                  End Site
                  {
                    OFFSET 1.69225 -0.51767 -0.607171
                  }
                }
              }
            }
          }
        }
      }
    }
  }
  JOINT rButtock
  {
    OFFSET -8.77824 4.35084 1.2192
    CHANNELS 3 Zrotation Xrotation Yrotation
    JOINT rThigh
    {
      OFFSET 0 -1.70687 -2.19456
      CHANNELS 3 Zrotation Xrotation Yrotation
      JOINT rShin
      {
        OFFSET 0 -36.8199 0.73152
        CHANNELS 3 Zrotation Xrotation Yrotation
        JOINT rFoot
        {
          OFFSET 0.73152 -45.1104 -5.12064
          CHANNELS 3 Zrotation Xrotation Yrotation
          End Site
          {
            OFFSET -1.1221 -3.69964 12.103
          }
        }
      }
    }
  }
  JOINT lButtock
  {
    OFFSET 8.77824 4.35084 1.2192
    CHANNELS 3 Zrotation Xrotation Yrotation
    JOINT lThigh
    {
      OFFSET 0 -1.70687 -2.19456
      CHANNELS 3 Zrotation Xrotation Yrotation
      JOINT lShin
      {
        OFFSET 0 -36.8199 0.73152
        CHANNELS 3 Zrotation Xrotation Yrotation
        JOINT lFoot
        {
          OFFSET -0.73152 -45.1104 -5.12064
          CHANNELS 3 Zrotation Xrotation Yrotation
          End Site
          {
            OFFSET 1.1221 -3.69964 12.103
          }
        }
      }
    }
  }
}
MOTION
Frames:	7
Frame Time:	0.00833333
90.4032 83.5109 -17.4086 -0.0 -0.0 -0.0 0.0 0.0 0.0 0.0 0.0 0.0 -8.133567 10.422116 -81.502261 11.496437 6.51512 81.58876 -0.0 0.0 -0.0 -0.0 0.0 -0.0 -80.1661 68.371792 83.260848 16.62976 26.758674 0.711594 116.301607 74.874404 -142.475903 -173.34033 31.256102 143.368671 -78.030619 38.689342 42.41267 168.686713 -49.549356 73.413282 -0.327682 0.529888 0.186114 -105.644981 45.222957 73.746589 89.035113 -81.393384 59.759886 -83.509595 61.076457 75.342336 -0.000142 -0.018533 -0.005823 1.275031 -30.846981 -3.614336 0.465225 1.226425 0.428913 17.180369 58.787733 9.46252 80.1661 68.371792 -83.260848 -16.633093 26.658323 -0.703998 -5.023579 47.475519 35.097403 -170.805478 -16.101147 -143.93031 121.36458 30.329582 -71.957921 28.51158 -16.423182 -29.203134 -12.216524 -21.784719 5.120188 -130.85235 -54.5181 -76.545306 160.812736 -7.099536 -143.309974 168.212226 -29.089324 -143.831884 74.840941 72.961123 -92.827929 7.146873 -42.433696 25.756075 -8.368306 26.426704 -7.36241 0.358639 -0.102397 1.354854 -0.0 0.0 -0.0 -0.0 -2.27635 -180.0 -7.438471 -7.594683 -92.506295 -142.06797 -39.999603 117.303345 -0.0 0.0 -0.0 -0.0 -2.27635 -180.0 7.438471 -7.594683 92.506295 142.06797 -39.999603 -117.303345
91.9268 83.3221 -17.683 -0.0 -0.0 -0.0 -0.0 -4.771896 -180.0 -0.0 -4.771896 180.0 -8.063956 8.6533 -71.432562 10.752387 4.907224 71.581577 -0.0 0.0 -0.0 -0.0 0.0 -0.0 -158.417022 -29.366393 166.793865 2.435374 26.305259 23.974218 -85.076478 -87.374236 -122.279461 163.693593 -33.459187 140.30189 -177.747581 -15.324192 89.569824 -176.655838 -12.970185 96.2559 -108.427673 34.160977 91.742903 164.044266 -67.567471 106.844099 -153.32078 13.628946 138.862343 -172.806009 -42.720446 143.979285 -145.119466 0.267753 -179.212454 22.467021 37.441605 -4.82467 -156.864532 55.54159 -150.329136 -22.942826 -37.358979 -25.915405 155.54842 -3.80427 -161.899949 143.092852 30.545678 -156.647043 83.507754 74.593775 -75.254321 -22.475699 -49.116999 -12.233557 171.706035 -9.388422 -89.948992 16.008551 -43.604564 -3.873661 -24.075919 -42.306446 5.558499 -113.720206 -55.907957 -59.326084 15.423151 32.961633 -11.295888 35.51798 56.678735 -27.214237 -0.004672 0.917785 -0.288305 159.322704 43.117673 -163.674591 26.564207 -38.860901 25.60587 -32.461937 84.36064 -4.220095 -0.0 0.0 -0.0 -0.0 -0.0 -0.0 6.882802 3.713377 72.914422 -153.041571 -24.877548 92.330171 -0.0 0.0 -0.0 -0.0 -0.0 -0.0 -6.882802 3.713377 -72.914422 153.041571 -24.877548 -92.330171
93.35 83.1005 -17.7969 -0.0 -0.0 -0.0 0.0 0.0 0.0 0.0 0.0 0.0 -8.133567 10.422116 -81.502261 11.496437 6.51512 81.58876 -0.0 0.0 -0.0 -0.0 0.0 -0.0 -80.1661 68.371792 83.260848 16.62976 26.758674 0.711594 116.301607 74.874404 -142.475903 -173.34033 31.256102 143.368671 -78.030619 38.689342 42.41267 168.686713 -49.549356 73.413282 -0.327682 0.529888 0.186114 -105.644981 45.222957 73.746589 89.035113 -81.393384 59.759886 -83.509595 61.076457 75.342336 -0.000142 -0.018533 -0.005823 1.275031 -30.846981 -3.614336 -29.901653 -41.144824 -28.886179 -130.000798 -30.227239 -128.336117 80.1661 68.371792 -83.260848 -16.633093 26.658323 -0.703998 -5.023579 47.475519 35.097403 -170.805478 -16.101147 -143.93031 121.36458 30.329582 -71.957921 28.51158 -16.423182 -29.203134 -12.216524 -21.784719 5.120188 -130.85235 -54.5181 -76.545306 160.812736 -7.099536 -143.309974 168.212226 -29.089324 -143.831884 74.840941 72.961123 -92.827929 7.146873 -42.433696 25.756075 -11.406452 38.078252 -9.693446 157.804004 35.881174 145.985791 -0.0 0.0 -0.0 -0.0 -2.27635 -180.0 -7.438471 -7.594683 -92.506295 -142.06797 -39.999603 117.303345 -0.0 0.0 -0.0 -0.0 -2.27635 -180.0 7.438471 -7.594683 92.506295 142.06797 -39.999603 -117.303345
94.6524 82.972 -17.8187 -0.0 -0.0 -0.0 0.0 0.0 0.0 0.0 0.0 0.0 -8.133567 10.422116 -81.502261 11.496437 6.51512 81.58876 -0.0 0.0 -0.0 -0.0 0.0 -0.0 -80.1661 68.371792 83.260848 16.62976 26.758674 0.711594 168.756853 -0.618695 173.081229 -32.955207 61.972946 17.677518 -89.136032 38.427358 50.299234 66.204093 -45.833425 28.760685 4.608195 -7.831048 -2.380359 -177.048965 -19.529705 107.575247 -160.09819 -4.901163 142.968881 -15.28336 42.635487 14.995961 0.000474 0.063775 0.020036 -0.538124 -62.630425 -9.088941 -80.939074 -51.227554 -79.359772 -145.041738 7.71343 -144.180364 80.1661 68.371792 -83.260848 -16.633093 26.658323 -0.703998 -5.023579 47.475519 35.097403 -170.805478 -16.101147 -143.93031 121.36458 30.329582 -71.957921 28.51158 -16.423182 -29.203134 -12.216524 -21.784719 5.120188 -130.85235 -54.5181 -76.545306 160.812736 -7.099536 -143.309974 168.212226 -29.089324 -143.831884 74.840941 72.961123 -92.827929 7.146873 -42.433696 25.756075 -11.406452 38.078252 -9.693446 157.804004 35.881174 145.985791 -0.0 0.0 -0.0 -0.0 -2.27635 -180.0 -7.438471 -7.594683 -92.506295 -142.06797 -39.999603 117.303345 -0.0 0.0 -0.0 -0.0 -2.27635 -180.0 7.438471 -7.594683 92.506295 142.06797 -39.999603 -117.303345
95.8836 82.9615 -17.8285 -0.0 -0.0 -0.0 -0.0 -4.771896 -180.0 0.0 -4.771896 180.0 -8.072185 8.718885 -71.807182 10.785093 4.96472 71.954626 -0.0 0.0 -0.0 -0.0 0.0 -0.0 -80.1661 68.371792 83.260848 -70.364354 86.569962 89.873968 56.230418 66.969339 -67.332188 -140.482043 67.391708 118.2932 -78.030619 38.689342 42.41267 -149.745083 -32.822798 83.069047 -158.401436 -30.156085 122.604732 -6.924147 40.854151 8.826965 -17.370464 35.632012 12.954628 -170.958792 -23.739991 146.398228 0.004873 1.771387 0.556475 -150.989586 60.916022 154.726893 -139.224096 -4.39683 -136.390672 -144.592512 11.158616 -142.4702 80.1661 68.371792 -83.260848 -16.928347 14.037338 0.169172 -10.386374 66.177224 40.470411 -172.896109 -9.954786 -144.614061 -27.451228 -26.099095 -2.267476 27.37171 22.617094 -8.700242 50.386399 40.826202 -40.02487 25.419636 41.585825 -5.432591 -0.541241 -1.589941 0.294737 131.81316 52.41594 -117.835151 145.09972 -1.520172 178.650459 -22.217287 29.186653 5.362908 145.173549 12.06758 141.82295 145.101506 11.893935 141.807872 -0.0 0.0 -0.0 -0.0 -0.0 -0.0 6.882802 3.713377 72.914422 -153.041571 -24.877548 92.330171 -0.0 0.0 -0.0 -0.0 -0.0 -0.0 -6.882802 3.713377 -72.914422 153.041571 -24.877548 -92.330171
97.152 82.9484 -17.8254 -0.0 -0.0 -0.0 0.0 0.0 0.0 0.0 0.0 0.0 1.681211 -0.191291 9.638157 -1.625502 0.469952 -9.628684 0.0 0.0 0.0 0.0 0.0 0.0 -80.1661 68.371792 83.260848 16.636043 26.569078 0.697254 170.062669 -7.959591 172.895207 -25.498965 55.790154 11.520513 -3.534755 3.45068 0.64676 21.347936 -30.73843 -12.069276 -2.68634 4.226753 1.583637 88.095048 -61.901829 46.357843 -0.219913 0.63841 0.122732 -176.379031 -34.264691 143.912148 0.000474 0.063775 0.020036 1.130976 -44.573713 -5.441434 -1.178169 -2.985265 -1.092498 0.220976 0.402059 0.265449 80.1661 68.371792 -83.260848 -16.636043 26.569078 -0.697254 -6.748371 50.942049 36.523785 -171.970389 -12.725291 -144.33672 -87.247882 -50.68899 -36.415345 111.737083 34.943305 -73.995224 -169.568139 -65.842545 -109.956128 61.013425 48.936363 -55.770708 -68.983989 -80.15399 -40.578188 -5.165196 -5.92252 -2.576867 74.840941 72.961123 -92.827929 7.146873 -42.433696 25.756075 87.575606 -50.207376 85.929595 79.706773 -55.821103 80.556533 -0.0 0.0 -0.0 -0.0 -2.27635 -180.0 -7.080248 -6.369655 -103.605104 -147.329605 20.328153 82.111568 -0.0 0.0 -0.0 -0.0 -2.27635 -180.0 7.080248 -6.369655 103.605104 147.329605 20.328153 -82.111568
98.3965 82.8604 -17.7441 -0.0 -0.0 -0.0 -0.0 -4.771896 -180.0 0.0 -4.771896 180.0 -8.072185 8.718885 -71.807182 10.785093 4.96472 71.954626 -0.0 0.0 -0.0 -0.0 0.0 -0.0 -80.1661 68.371792 83.260848 -70.364354 86.569962 89.873968 56.230418 66.969339 -67.332188 -140.482043 67.391708 118.2932 -78.030619 38.689342 42.41267 -149.745083 -32.822798 83.069047 -158.401436 -30.156085 122.604732 -6.924147 40.854151 8.826965 -17.370464 35.632012 12.954628 -170.958792 -23.739991 146.398228 0.004873 1.771387 0.556475 -150.989586 60.916022 154.726893 -124.851156 -29.038378 -122.621388 -143.740177 7.8689 -142.973917 80.1661 68.371792 -83.260848 -16.928347 14.037338 0.169172 -10.386374 66.177224 40.470411 -172.896109 -9.954786 -144.614061 -27.451228 -26.099095 -2.267476 27.37171 22.617094 -8.700242 50.386399 40.826202 -40.02487 25.419636 41.585825 -5.432591 -0.541241 -1.589941 0.294737 131.81316 52.41594 -117.835151 145.09972 -1.520172 178.650459 -22.217287 29.186653 5.362908 111.800364 -40.681617 109.845664 -11.595391 24.46956 -6.765592 -0.0 0.0 -0.0 -0.0 -0.0 -0.0 7.066731 4.141724 76.966642 -151.730343 -27.681844 97.784354 -0.0 0.0 -0.0 -0.0 -0.0 -0.0 -7.066731 4.141724 -76.966642 151.730343 -27.681844 -97.784354
